<?xml version="1.0" encoding="UTF-8" standalone="no"?>
<!-- Created with Inkscape (http://www.inkscape.org/) -->

<svg
   width="27.13563mm"
   height="13.148732mm"
   viewBox="0 0 27.13563 13.148732"
   version="1.1"
   id="svg12882"
   inkscape:version="1.3 (0e150ed6c4, 2023-07-21)"
   sodipodi:docname="MOCpy-light.svg"
   xmlns:inkscape="http://www.inkscape.org/namespaces/inkscape"
   xmlns:sodipodi="http://sodipodi.sourceforge.net/DTD/sodipodi-0.dtd"
   xmlns="http://www.w3.org/2000/svg"
   xmlns:svg="http://www.w3.org/2000/svg">
  <sodipodi:namedview
     id="namedview12884"
     pagecolor="#ffffff"
     bordercolor="#000000"
     borderopacity="0.25"
     inkscape:showpageshadow="2"
     inkscape:pageopacity="0.0"
     inkscape:pagecheckerboard="0"
     inkscape:deskcolor="#d1d1d1"
     inkscape:document-units="mm"
     showgrid="false"
     inkscape:zoom="10.59046"
     inkscape:cx="40.413731"
     inkscape:cy="27.760834"
     inkscape:window-width="2560"
     inkscape:window-height="1368"
     inkscape:window-x="2560"
     inkscape:window-y="0"
     inkscape:window-maximized="1"
     inkscape:current-layer="layer1" />
  <defs
     id="defs12879">
    <clipPath
       id="p6faa9b3562"
       style="stroke-linecap:butt;stroke-linejoin:round">
      <path
         id="path120132"
         d="m 90,640.8 h 558 v 0 -554.4 0 H 90 v 0 554.4"
         inkscape:connector-curvature="0"
         style="stroke-linecap:butt;stroke-linejoin:round" />
    </clipPath>
    <clipPath
       clipPathUnits="userSpaceOnUse"
       id="clipPath93428"
       style="stroke-linecap:butt;stroke-linejoin:round">
      <path
         style="fill:none;stroke:#000000;stroke-width:11.0931px;stroke-linecap:butt;stroke-linejoin:miter;stroke-opacity:1"
         d="m 360.7526,385.65248 c -133.40519,-2.81453 -120.1962,26.2135 -120.4967,127.86674 l 23.44043,129.56206 315.25735,-1.84336 -7.02749,-481.35932 -83.20938,58.49875 c 2.22163,153.9549 5.44098,170.08965 -127.96421,167.27623 z"
         id="path93430"
         inkscape:connector-curvature="0"
         sodipodi:nodetypes="zcccccz" />
    </clipPath>
    <clipPath
       id="clipPath13015"
       style="stroke-linecap:butt;stroke-linejoin:round">
      <path
         id="path13013"
         d="m 90,640.8 h 558 v 0 -554.4 0 H 90 v 0 554.4"
         inkscape:connector-curvature="0"
         style="stroke-linecap:butt;stroke-linejoin:round" />
    </clipPath>
  </defs>
  <g
     inkscape:label="Calque 1"
     inkscape:groupmode="layer"
     id="layer1"
     transform="translate(-47.591002,-129.73384)">
    <path
       style="fill:#000000;fill-opacity:1;stroke:none;stroke-width:0.0110485;stroke-linecap:round;stroke-linejoin:round;stroke-miterlimit:4;stroke-dasharray:0.0110485, 0.0110485;stroke-dashoffset:0;stroke-opacity:1"
       d="m 61.521329,142.86172 c -0.172251,0.0294 -0.269336,0.028 -0.429374,-0.006 -0.300538,-0.0642 -0.535395,-0.20918 -0.732477,-0.45213 -0.113597,-0.14003 -0.182086,-0.29199 -0.150777,-0.3346 0.02287,-0.0311 0.07071,-0.004 0.200816,0.11587 0.06655,0.0611 0.165797,0.13848 0.220572,0.17204 0.278691,0.17074 0.593118,0.1924 0.962401,0.0662 0.604338,-0.20634 0.954121,-0.6535 0.891013,-1.13867 -0.01,-0.077 -0.06318,-0.17082 -0.161471,-0.28512 -0.218098,-0.2536 -0.551659,-0.39031 -0.860804,-0.35278 -0.0802,0.01 -0.236857,0.0481 -0.583472,0.14297 -0.260606,0.0713 -0.752309,0.19808 -1.092407,0.28282 -0.742528,0.19718 -1.202367,0.23692 -1.833072,0.0769 -0.363983,-0.11212 -0.69944,-0.31874 -0.912268,-0.56187 -0.154809,-0.17687 -0.240998,-0.32184 -0.316528,-0.53244 -0.175835,-0.49029 -0.07278,-1.13205 0.244788,-1.52432 0.167025,-0.20632 0.467509,-0.41257 0.740619,-0.50829 0.07649,-0.0264 0.117995,-0.0274 2.468799,-0.0112 1.315059,0.009 2.391852,0.0194 2.392878,0.0235 0.0033,0.0133 -0.229488,0.19724 -0.362884,0.28682 -0.218354,0.14664 -0.450054,0.26769 -0.719126,0.3758 -0.108089,0.0436 -0.216062,0.0756 -0.448753,0.13353 -0.461545,0.11499 -0.660943,0.13171 -1.310434,0.10897 -0.762699,-0.0267 -0.964994,-0.0143 -1.387315,0.0854 l -0.183771,0.0438 -0.06448,0.0547 c -0.117382,0.0997 -0.209566,0.25208 -0.237214,0.39213 -0.04377,0.22171 0.063,0.44855 0.286403,0.60855 0.193444,0.13853 0.444783,0.23302 0.676611,0.25437 0.252178,0.0232 0.421152,-0.009 1.372507,-0.26026 0.99616,-0.2633 1.134897,-0.28038 1.5964,-0.19685 0.270859,0.049 0.464247,0.11937 0.668794,0.2432 0.259466,0.15709 0.455671,0.37673 0.562162,0.62933 0.04783,0.11344 0.09305,0.34282 0.09172,0.46564 -0.0052,0.49587 -0.258581,0.94529 -0.719236,1.27582 -0.185511,0.13307 -0.56279,0.27519 -0.870271,0.32759 z"
       id="path95863"
       inkscape:connector-curvature="0"
       sodipodi:nodetypes="ccccccccccccccccccccccccccccccccccccc" />
    <path
       style="font-size:8.97071px;line-height:1.25;font-family:Stop;-inkscape-font-specification:'Stop, Normal';letter-spacing:0px;word-spacing:0px;stroke-width:0.224268;stroke-linejoin:round"
       d="m 47.591002,133.05753 h 4.240062 q 0.740259,0 1.169521,0.10513 0.416122,0.10074 0.731498,0.49058 0.201491,0.24968 0.289096,0.59571 0.0876,0.34166 0.0876,0.88043 v 3.90716 h -1.629445 v -3.84146 q 0,-0.24529 -0.03504,-0.36794 -0.03066,-0.12264 -0.118266,-0.20587 -0.08323,-0.0788 -0.214631,-0.1095 -0.127027,-0.035 -0.337278,-0.035 h -2.553674 v 4.55981 h -1.629445 z m 4.01667,2.29962 v 3.67939 h -1.511179 v -3.67939 z"
       id="text156498"
       aria-label="m" />
    <path
       d="m 68.706495,133.05753 v 1.4192 h -0.604472 q -0.481825,0 -0.801582,0.1314 -0.319757,0.13141 -0.556289,0.42489 -0.354799,0.43802 -0.354799,1.02497 0,0.55191 0.341658,0.97679 0.249673,0.31538 0.57819,0.45116 0.332898,0.13141 0.862906,0.13141 h 0.534388 v 1.41919 h -0.805963 q -0.915468,0 -1.572502,-0.30223 -0.652654,-0.30224 -1.086297,-0.92423 -0.262814,-0.3767 -0.402981,-0.82786 -0.140167,-0.45117 -0.140167,-0.91547 0,-0.46869 0.144547,-0.93299 0.144548,-0.46868 0.411742,-0.84976 0.271574,-0.38984 0.643894,-0.6658 0.372319,-0.27595 0.792821,-0.3986 0.556289,-0.16207 1.270267,-0.16207 z"
       id="text156502"
       style="font-size:8.97071px;line-height:1.25;font-family:Stop;-inkscape-font-specification:'Stop, Normal';letter-spacing:0px;word-spacing:0px;stroke-width:0.224268;stroke-linejoin:round"
       aria-label="c" />
    <path
       inkscape:connector-curvature="0"
       id="path91159"
       style="font-style:normal;font-variant:normal;font-weight:normal;font-stretch:normal;font-size:5.62769px;line-height:1.25;font-family:AnjaliOldLipi;-inkscape-font-specification:'AnjaliOldLipi, Normal';font-variant-ligatures:normal;font-variant-caps:normal;font-variant-numeric:normal;font-feature-settings:normal;text-align:start;letter-spacing:0px;word-spacing:0px;writing-mode:lr-tb;text-anchor:start;fill:#3571a3;fill-opacity:1;stroke:none;stroke-width:0.1;stroke-linecap:butt;stroke-linejoin:round;stroke-miterlimit:4;stroke-dasharray:none;stroke-opacity:1"
       d="m 69.387472,137.63177 h 0.37921 v 0.35173 q 0.348982,-0.28303 0.527595,-0.34349 0.178613,-0.0605 0.310512,-0.0632 0.560571,0.003 0.895814,0.46989 0.335243,0.46715 0.335243,1.06344 0,0.59629 -0.277537,1.01397 -0.321504,0.48913 -0.926041,0.48913 -0.604536,0 -0.865586,-0.28853 v 1.34372 h -0.37921 z m 1.84109,0.68148 q -0.228076,-0.35723 -0.634764,-0.35723 -0.406689,0 -0.827116,0.57156 v 1.15138 q 0.189604,0.35172 0.579805,0.50011 0.142891,0.055 0.294025,0.055 0.153882,0 0.266546,-0.0467 0.115411,-0.0467 0.244562,-0.16212 0.131899,-0.11541 0.219832,-0.36547 0.08518,-0.25281 0.08518,-0.62103 0,-0.36821 -0.228075,-0.72544 z" />
    <path
       inkscape:connector-curvature="0"
       id="path91161"
       style="font-style:normal;font-variant:normal;font-weight:normal;font-stretch:normal;font-size:5.62769px;line-height:1.25;font-family:AnjaliOldLipi;-inkscape-font-specification:'AnjaliOldLipi, Normal';font-variant-ligatures:normal;font-variant-caps:normal;font-variant-numeric:normal;font-feature-settings:normal;text-align:start;letter-spacing:0px;word-spacing:0px;writing-mode:lr-tb;text-anchor:start;fill:#3571a3;fill-opacity:1;stroke:none;stroke-width:0.1;stroke-linecap:butt;stroke-linejoin:round;stroke-miterlimit:4;stroke-dasharray:none;stroke-opacity:1"
       d="m 73.50107,140.0197 0.868335,-2.44014 0.357226,0.1264 q -0.236318,0.67049 -0.384705,1.09092 -0.148386,0.41768 -0.239067,0.67599 -0.09068,0.25554 -0.173117,0.48637 -0.08244,0.23082 -0.151134,0.42044 -0.0687,0.18685 -0.123655,0.33524 -0.05496,0.15112 -0.115412,0.29951 -0.05771,0.15114 -0.164874,0.32975 -0.10442,0.18137 -0.332495,0.28303 -0.228075,0.10442 -0.664991,0.10442 v -0.37921 q 0.439664,0 0.621025,-0.17861 0.09343,-0.0934 0.159378,-0.24181 0.0687,-0.14839 0.145638,-0.35998 l -1.068931,-2.86055 0.357226,-0.13191 z" />
    <g
       transform="matrix(0.02714213,0,0,0.02728708,49.206705,126.40377)"
       style="fill:#3571a3;fill-opacity:1;stroke:#000000;stroke-width:3.67451;stroke-linecap:butt;stroke-linejoin:round;stroke-miterlimit:4;stroke-dasharray:none;stroke-opacity:1"
       id="g87054">
      <path
         inkscape:connector-curvature="0"
         d="m 333.92652,369.94526 78.4498,66.43449 -78.70442,66.58973 -78.61726,-66.73213 z m 78.13128,-66.68153 78.65812,66.32713 -78.3396,66.78889 -78.4498,-66.43449 z m -77.87502,-67.19778 77.87502,67.19778 -78.13128,66.68153 -78.04078,-67.10545 z m 38.91039,233.58195 39.44249,33.32158 -39.42652,33.44329 -39.43724,-33.44329 z m 39.28315,-33.26815 39.49491,33.22358 -39.33557,33.36615 -39.44249,-33.32158 z m 39.19219,-33.31798 39.59451,33.14883 -39.29179,33.39273 -39.49491,-33.22358 z m 39.14741,-33.47091 39.74152,33.09698 -39.29442,33.52276 -39.59451,-33.14883 z m -235.24638,0.0533 39.13734,33.44427 -39.55224,33.14896 -39.27371,-33.49595 z m 39.40823,-33.11589 39.04875,33.41703 -39.31964,33.14313 -39.13734,-33.44427 z m -38.99203,-33.68842 38.99203,33.68842 -39.40823,33.11589 -39.12769,-33.69199 z m 234.38166,-0.0797 39.59654,33.10305 -39.14802,33.72765 -39.45029,-33.10683 z m -39.30642,-33.24256 39.30642,33.24256 -39.00177,33.72387 -39.20783,-33.2203 z m -39.06406,-33.48686 39.06406,33.48686 -38.90318,33.74613 -39.01243,-33.43766 z m -38.86773,-33.83737 38.86773,33.83737 -38.85155,33.79533 -38.86259,-33.76012 z m -39.35729,300.77611 19.70294,16.70437 -19.76697,16.74677 -19.71346,-16.73782 z m -19.67759,-16.68287 19.67759,16.68287 -19.77749,16.71332 -19.69401,-16.71332 z m -19.65816,-16.67436 19.65816,16.67436 -19.79391,16.68287 -19.68051,-16.70186 z m -19.64461,-16.67878 19.64461,16.67878 -19.81626,16.65537 -19.67288,-16.70338 z m -19.6369,-16.69612 19.6369,16.69612 -19.84453,16.63077 -19.67111,-16.71783 z m -19.63495,-16.72637 19.63495,16.72637 -19.87874,16.60906 -19.67514,-16.74525 z m 196.79215,66.77228 19.81119,16.68622 -19.69526,16.71668 -19.79211,-16.71668 z m 19.65939,-16.67993 19.83617,16.65869 -19.68437,16.70746 -19.81119,-16.68622 z m 19.64845,-16.68658 19.8671,16.63407 -19.67938,16.7112 -19.83617,-16.65869 z m 19.64334,-16.70615 19.90398,16.61232 -19.68022,16.7279 -19.8671,-16.63407 z m 19.64401,-16.73865 19.94685,16.59341 -19.68688,16.75756 -19.90398,-16.61232 z m -294.74586,-50.09893 19.60221,16.81559 -19.88245,16.55279 -19.64828,-16.82578 z m 19.84613,-16.5374 19.56224,16.8085 -19.80616,16.54449 -19.60221,-16.81559 z m -19.56545,-16.88349 19.56545,16.88349 -19.84613,16.5374 -19.6114,-16.88771 z m 0.28149,-33.51777 19.52842,16.97361 -19.80991,16.54416 -19.57425,-16.97168 z m 19.77376,-16.57341 19.48864,16.97886 -19.73398,16.56816 -19.52842,-16.97361 z m 19.69793,-16.61381 19.45487,16.98748 -19.66416,16.60519 -19.48864,-16.97886 z m 19.62817,-16.66735 19.42703,16.99956 -19.60033,16.65527 -19.45487,-16.98748 z m -19.4177,-17.11359 19.4177,17.11359 -19.62817,16.66735 -19.45139,-17.09824 z m 38.98202,0.37952 19.40508,17.01514 -19.54237,16.71849 -19.42703,-16.99956 z m -19.38993,-17.1326 19.38993,17.1326 -19.56432,16.73407 -19.4177,-17.11359 z m 38.89621,0.31849 19.38898,17.03434 -19.49018,16.79491 -19.40508,-17.01514 z m 195.49324,133.73406 19.87388,16.53609 -19.61377,16.83234 -19.83123,-16.54324 z m -0.52232,-67.00551 19.80138,16.56763 -19.53976,16.99481 -19.75894,-16.56244 z m -19.72286,-16.60587 19.72286,16.60587 -19.49732,17 -19.68645,-16.59732 z m -19.65043,-16.65727 19.65043,16.65727 -19.46091,17.00855 -19.61997,-16.64524 z m -19.58396,-16.72184 19.58396,16.72184 -19.43045,17.02058 -19.55941,-16.7063 z m -19.52333,-16.79973 19.52333,16.79973 -19.4059,17.03612 -19.50465,-16.78056 z m -19.46845,-16.89101 19.46845,16.89101 -19.38722,17.05529 -19.45559,-16.86816 z m -77.56794,0.0396 19.3787,17.05722 -19.44367,16.88467 -19.38898,-17.03434 z m 19.12709,317.54979 9.86285,8.36432 -9.87687,8.376 -9.864,-8.37306 z m -59.17444,-16.70437 9.84495,8.35441 -9.91301,8.36718 -9.85054,-8.36242 z m -9.84157,-8.35155 9.84157,8.35155 -9.9186,8.35917 -9.84791,-8.35917 z m -9.83894,-8.35031 9.83894,8.35031 -9.92494,8.35155 -9.84601,-8.35757 z m -9.83703,-8.35069 9.83703,8.35069 -9.93201,8.34429 -9.84486,-8.35758 z m -9.83585,-8.35269 9.83585,8.35269 -9.93984,8.3374 -9.84442,-8.35922 z m -9.83542,-8.3563 9.83542,8.3563 -9.94841,8.33087 -9.84473,-8.36247 z m -9.83569,-8.36153 9.83569,8.36153 -9.95772,8.3247 -9.84576,-8.36735 z m -9.8367,-8.36839 9.8367,8.36839 -9.96779,8.31888 -9.84752,-8.37385 z m -9.69834,-25.05839 9.82933,8.38258 -9.96943,8.29895 -9.84089,-8.38696 z m 9.96028,-8.28723 9.81855,8.37858 -9.9495,8.29123 -9.82933,-8.38258 z m -9.82021,-8.391 9.82021,8.391 -9.96028,8.28723 -9.83175,-8.39465 z m -9.8226,-8.40505 9.8226,8.40505 -9.97182,8.28358 -9.83489,-8.40835 z m 186.87842,125.33862 9.88368,8.36866 -9.86165,8.37279 -9.88187,-8.37741 z m 9.85267,-8.35597 9.88622,8.3603 -9.85521,8.36433 -9.88368,-8.36866 z m 19.73575,0.003 9.9026,8.36436 -9.85355,8.36588 -9.89858,-8.37274 z m -9.88951,-8.35232 9.88951,8.35232 -9.84953,8.3575 -9.88622,-8.3603 z m 59.17174,-16.70746 9.943,8.34681 -9.84895,8.36065 -9.93525,-8.35407 z m 9.83995,-8.35432 9.95149,8.33991 -9.84844,8.36122 -9.943,-8.34681 z m 9.83943,-8.35688 9.96073,8.33337 -9.84867,8.36342 -9.95149,-8.33991 z m 29.24429,-58.46443 9.97458,8.28855 -9.83551,8.38957 -9.96311,-8.29256 z m 9.82637,-8.39855 9.98679,8.28489 -9.83858,8.40221 -9.97458,-8.28855 z M 206.25697,360.939 l 9.8042,8.43402 -9.95357,8.26983 -9.81645,-8.43584 z m 0.2992,-33.46086 9.78568,8.47399 -9.93538,8.26715 -9.7979,-8.4743 z m 10.20834,-41.85308 9.75557,8.52683 -9.89674,8.28247 -9.767,-8.52515 z m 9.8877,-8.29304 9.74489,8.52893 -9.87702,8.29094 -9.75557,-8.52683 z m 9.86799,-8.30356 9.73496,8.53145 -9.85806,8.30104 -9.74489,-8.52893 z m 9.84904,-8.31575 9.72579,8.53443 -9.83987,8.31277 -9.73496,-8.53145 z m -9.7256,-8.56381 9.7256,8.56381 -9.84904,8.31575 -9.73552,-8.56044 z m 58.71287,-33.25538 9.69104,8.55598 -9.76003,8.39622 -9.69652,-8.55076 z m -9.68721,-8.58751 9.68721,8.58751 -9.76551,8.40144 -9.69341,-8.58184 z m 19.4382,0.16392 9.6863,8.56168 -9.74625,8.41789 -9.69104,-8.55598 z m 225.20172,175.52867 9.97762,8.27607 -9.8294,8.41317 -9.96542,-8.279 z m -9.9563,-8.27219 9.9563,8.27219 -9.8172,8.41024 -9.94487,-8.27474 z m 9.808,-8.42465 9.96849,8.27 -9.82019,8.42684 -9.9563,-8.27219 z m -0.1484,-16.70996 9.95935,8.26671 -9.81095,8.44325 -9.94718,-8.26816 z m -9.9381,-8.26688 9.9381,8.26688 -9.79878,8.4418 -9.9267,-8.26793 z m 9.78952,-8.46171 9.95025,8.26618 -9.80167,8.46241 -9.9381,-8.26688 z m -0.14879,-16.7528 9.94116,8.26846 -9.79237,8.48434 -9.92902,-8.26839 z m -9.91995,-8.2727 9.91995,8.2727 -9.78023,8.48441 -9.90858,-8.27222 z m -0.2803,-33.6179 9.90183,8.28985 -9.76152,8.53828 -9.89049,-8.28778 z m -9.88145,-8.29985 9.88145,8.29985 -9.75018,8.54035 -9.87086,-8.29733 z m -9.86184,-8.31149 9.86184,8.31149 -9.73959,8.54287 -9.852,-8.30854 z m -9.84298,-8.32478 9.84298,8.32478 -9.72975,8.54582 -9.8339,-8.32139 z m -9.82487,-8.33972 9.82487,8.33972 -9.72067,8.54921 -9.81653,-8.33588 z m -9.80752,-8.35632 9.80752,8.35632 -9.71233,8.55305 -9.79992,-8.35202 z m -9.7909,-8.37457 9.7909,8.37457 -9.70473,8.55735 -9.78404,-8.36982 z m -9.77501,-8.39451 9.77501,8.39451 -9.69787,8.5621 -9.76888,-8.3893 z m -9.75984,-8.41612 9.75984,8.41612 -9.69174,8.56731 -9.75445,-8.41043 z m -48.55153,-8.24126 9.71292,8.47732 -9.69055,8.52407 -9.71116,-8.47112 z m -9.70203,-8.50475 9.70203,8.50475 -9.68879,8.53027 -9.70098,-8.49809 z m 19.38335,-0.056 9.71541,8.48398 -9.68381,8.55407 -9.71292,-8.47732 z m 29.12482,8.36258 9.74539,8.43941 -9.68635,8.573 -9.74073,-8.43325 z m -116.38042,0.0595 9.68228,8.56785 -9.73316,8.44125 -9.6863,-8.56168 z m 9.72407,-8.47295 9.679,8.5745 -9.72079,8.4663 -9.68228,-8.56785 z m 29.07193,8.63144 9.69191,8.52008 -9.70614,8.4802 -9.69303,-8.51389 z m -9.68383,-8.55 9.68383,8.55 -9.70726,8.48639 -9.68567,-8.54333 z m 19.38083,0.0356 9.69151,8.52675 -9.6966,8.50771 -9.69191,-8.52008 z"
         clip-path="url(#p6faa9b3562)"
         style="fill:#3571a3;fill-opacity:1;stroke:#000000;stroke-width:3.67451;stroke-linecap:butt;stroke-linejoin:miter;stroke-miterlimit:4;stroke-dasharray:none;stroke-opacity:1"
         id="path87052" />
    </g>
    <g
       id="g86681"
       style="fill:#fed142;fill-opacity:1;stroke:#000000;stroke-width:3.67451;stroke-linecap:butt;stroke-linejoin:round;stroke-miterlimit:4;stroke-dasharray:none;stroke-opacity:1"
       transform="matrix(0.02714213,0,0,0.02728708,49.206705,126.40377)"
       clip-path="url(#clipPath93428)">
      <path
         id="path86679"
         style="fill:#fed142;fill-opacity:1;stroke:#000000;stroke-width:3.67451;stroke-linecap:butt;stroke-linejoin:miter;stroke-miterlimit:4;stroke-dasharray:none;stroke-opacity:1"
         clip-path="url(#p6faa9b3562)"
         d="m 333.92652,369.94526 78.4498,66.43449 -78.70442,66.58973 -78.61726,-66.73213 z m 78.13128,-66.68153 78.65812,66.32713 -78.3396,66.78889 -78.4498,-66.43449 z m -77.87502,-67.19778 77.87502,67.19778 -78.13128,66.68153 -78.04078,-67.10545 z m 38.91039,233.58195 39.44249,33.32158 -39.42652,33.44329 -39.43724,-33.44329 z m 39.28315,-33.26815 39.49491,33.22358 -39.33557,33.36615 -39.44249,-33.32158 z m 39.19219,-33.31798 39.59451,33.14883 -39.29179,33.39273 -39.49491,-33.22358 z m 39.14741,-33.47091 39.74152,33.09698 -39.29442,33.52276 -39.59451,-33.14883 z m -235.24638,0.0533 39.13734,33.44427 -39.55224,33.14896 -39.27371,-33.49595 z m 39.40823,-33.11589 39.04875,33.41703 -39.31964,33.14313 -39.13734,-33.44427 z m -38.99203,-33.68842 38.99203,33.68842 -39.40823,33.11589 -39.12769,-33.69199 z m 234.38166,-0.0797 39.59654,33.10305 -39.14802,33.72765 -39.45029,-33.10683 z m -39.30642,-33.24256 39.30642,33.24256 -39.00177,33.72387 -39.20783,-33.2203 z m -39.06406,-33.48686 39.06406,33.48686 -38.90318,33.74613 -39.01243,-33.43766 z m -38.86773,-33.83737 38.86773,33.83737 -38.85155,33.79533 -38.86259,-33.76012 z m -39.35729,300.77611 19.70294,16.70437 -19.76697,16.74677 -19.71346,-16.73782 z m -19.67759,-16.68287 19.67759,16.68287 -19.77749,16.71332 -19.69401,-16.71332 z m -19.65816,-16.67436 19.65816,16.67436 -19.79391,16.68287 -19.68051,-16.70186 z m -19.64461,-16.67878 19.64461,16.67878 -19.81626,16.65537 -19.67288,-16.70338 z m -19.6369,-16.69612 19.6369,16.69612 -19.84453,16.63077 -19.67111,-16.71783 z m -19.63495,-16.72637 19.63495,16.72637 -19.87874,16.60906 -19.67514,-16.74525 z m 196.79215,66.77228 19.81119,16.68622 -19.69526,16.71668 -19.79211,-16.71668 z m 19.65939,-16.67993 19.83617,16.65869 -19.68437,16.70746 -19.81119,-16.68622 z m 19.64845,-16.68658 19.8671,16.63407 -19.67938,16.7112 -19.83617,-16.65869 z m 19.64334,-16.70615 19.90398,16.61232 -19.68022,16.7279 -19.8671,-16.63407 z m 19.64401,-16.73865 19.94685,16.59341 -19.68688,16.75756 -19.90398,-16.61232 z m -294.74586,-50.09893 19.60221,16.81559 -19.88245,16.55279 -19.64828,-16.82578 z m 19.84613,-16.5374 19.56224,16.8085 -19.80616,16.54449 -19.60221,-16.81559 z m -19.56545,-16.88349 19.56545,16.88349 -19.84613,16.5374 -19.6114,-16.88771 z m 0.28149,-33.51777 19.52842,16.97361 -19.80991,16.54416 -19.57425,-16.97168 z m 19.77376,-16.57341 19.48864,16.97886 -19.73398,16.56816 -19.52842,-16.97361 z m 19.69793,-16.61381 19.45487,16.98748 -19.66416,16.60519 -19.48864,-16.97886 z m 19.62817,-16.66735 19.42703,16.99956 -19.60033,16.65527 -19.45487,-16.98748 z m -19.4177,-17.11359 19.4177,17.11359 -19.62817,16.66735 -19.45139,-17.09824 z m 38.98202,0.37952 19.40508,17.01514 -19.54237,16.71849 -19.42703,-16.99956 z m -19.38993,-17.1326 19.38993,17.1326 -19.56432,16.73407 -19.4177,-17.11359 z m 38.89621,0.31849 19.38898,17.03434 -19.49018,16.79491 -19.40508,-17.01514 z m 195.49324,133.73406 19.87388,16.53609 -19.61377,16.83234 -19.83123,-16.54324 z m -0.52232,-67.00551 19.80138,16.56763 -19.53976,16.99481 -19.75894,-16.56244 z m -19.72286,-16.60587 19.72286,16.60587 -19.49732,17 -19.68645,-16.59732 z m -19.65043,-16.65727 19.65043,16.65727 -19.46091,17.00855 -19.61997,-16.64524 z m -19.58396,-16.72184 19.58396,16.72184 -19.43045,17.02058 -19.55941,-16.7063 z m -19.52333,-16.79973 19.52333,16.79973 -19.4059,17.03612 -19.50465,-16.78056 z m -19.46845,-16.89101 19.46845,16.89101 -19.38722,17.05529 -19.45559,-16.86816 z m -77.56794,0.0396 19.3787,17.05722 -19.44367,16.88467 -19.38898,-17.03434 z m 19.12709,317.54979 9.86285,8.36432 -9.87687,8.376 -9.864,-8.37306 z m -59.17444,-16.70437 9.84495,8.35441 -9.91301,8.36718 -9.85054,-8.36242 z m -9.84157,-8.35155 9.84157,8.35155 -9.9186,8.35917 -9.84791,-8.35917 z m -9.83894,-8.35031 9.83894,8.35031 -9.92494,8.35155 -9.84601,-8.35757 z m -9.83703,-8.35069 9.83703,8.35069 -9.93201,8.34429 -9.84486,-8.35758 z m -9.83585,-8.35269 9.83585,8.35269 -9.93984,8.3374 -9.84442,-8.35922 z m -9.83542,-8.3563 9.83542,8.3563 -9.94841,8.33087 -9.84473,-8.36247 z m -9.83569,-8.36153 9.83569,8.36153 -9.95772,8.3247 -9.84576,-8.36735 z m -9.8367,-8.36839 9.8367,8.36839 -9.96779,8.31888 -9.84752,-8.37385 z m -9.69834,-25.05839 9.82933,8.38258 -9.96943,8.29895 -9.84089,-8.38696 z m 9.96028,-8.28723 9.81855,8.37858 -9.9495,8.29123 -9.82933,-8.38258 z m -9.82021,-8.391 9.82021,8.391 -9.96028,8.28723 -9.83175,-8.39465 z m -9.8226,-8.40505 9.8226,8.40505 -9.97182,8.28358 -9.83489,-8.40835 z m 186.87842,125.33862 9.88368,8.36866 -9.86165,8.37279 -9.88187,-8.37741 z m 9.85267,-8.35597 9.88622,8.3603 -9.85521,8.36433 -9.88368,-8.36866 z m 19.73575,0.003 9.9026,8.36436 -9.85355,8.36588 -9.89858,-8.37274 z m -9.88951,-8.35232 9.88951,8.35232 -9.84953,8.3575 -9.88622,-8.3603 z m 59.17174,-16.70746 9.943,8.34681 -9.84895,8.36065 -9.93525,-8.35407 z m 9.83995,-8.35432 9.95149,8.33991 -9.84844,8.36122 -9.943,-8.34681 z m 9.83943,-8.35688 9.96073,8.33337 -9.84867,8.36342 -9.95149,-8.33991 z m 29.24429,-58.46443 9.97458,8.28855 -9.83551,8.38957 -9.96311,-8.29256 z m 9.82637,-8.39855 9.98679,8.28489 -9.83858,8.40221 -9.97458,-8.28855 z M 206.25697,360.939 l 9.8042,8.43402 -9.95357,8.26983 -9.81645,-8.43584 z m 0.2992,-33.46086 9.78568,8.47399 -9.93538,8.26715 -9.7979,-8.4743 z m 10.20834,-41.85308 9.75557,8.52683 -9.89674,8.28247 -9.767,-8.52515 z m 9.8877,-8.29304 9.74489,8.52893 -9.87702,8.29094 -9.75557,-8.52683 z m 9.86799,-8.30356 9.73496,8.53145 -9.85806,8.30104 -9.74489,-8.52893 z m 9.84904,-8.31575 9.72579,8.53443 -9.83987,8.31277 -9.73496,-8.53145 z m -9.7256,-8.56381 9.7256,8.56381 -9.84904,8.31575 -9.73552,-8.56044 z m 58.71287,-33.25538 9.69104,8.55598 -9.76003,8.39622 -9.69652,-8.55076 z m -9.68721,-8.58751 9.68721,8.58751 -9.76551,8.40144 -9.69341,-8.58184 z m 19.4382,0.16392 9.6863,8.56168 -9.74625,8.41789 -9.69104,-8.55598 z m 225.20172,175.52867 9.97762,8.27607 -9.8294,8.41317 -9.96542,-8.279 z m -9.9563,-8.27219 9.9563,8.27219 -9.8172,8.41024 -9.94487,-8.27474 z m 9.808,-8.42465 9.96849,8.27 -9.82019,8.42684 -9.9563,-8.27219 z m -0.1484,-16.70996 9.95935,8.26671 -9.81095,8.44325 -9.94718,-8.26816 z m -9.9381,-8.26688 9.9381,8.26688 -9.79878,8.4418 -9.9267,-8.26793 z m 9.78952,-8.46171 9.95025,8.26618 -9.80167,8.46241 -9.9381,-8.26688 z m -0.14879,-16.7528 9.94116,8.26846 -9.79237,8.48434 -9.92902,-8.26839 z m -9.91995,-8.2727 9.91995,8.2727 -9.78023,8.48441 -9.90858,-8.27222 z m -0.2803,-33.6179 9.90183,8.28985 -9.76152,8.53828 -9.89049,-8.28778 z m -9.88145,-8.29985 9.88145,8.29985 -9.75018,8.54035 -9.87086,-8.29733 z m -9.86184,-8.31149 9.86184,8.31149 -9.73959,8.54287 -9.852,-8.30854 z m -9.84298,-8.32478 9.84298,8.32478 -9.72975,8.54582 -9.8339,-8.32139 z m -9.82487,-8.33972 9.82487,8.33972 -9.72067,8.54921 -9.81653,-8.33588 z m -9.80752,-8.35632 9.80752,8.35632 -9.71233,8.55305 -9.79992,-8.35202 z m -9.7909,-8.37457 9.7909,8.37457 -9.70473,8.55735 -9.78404,-8.36982 z m -9.77501,-8.39451 9.77501,8.39451 -9.69787,8.5621 -9.76888,-8.3893 z m -9.75984,-8.41612 9.75984,8.41612 -9.69174,8.56731 -9.75445,-8.41043 z m -48.55153,-8.24126 9.71292,8.47732 -9.69055,8.52407 -9.71116,-8.47112 z m -9.70203,-8.50475 9.70203,8.50475 -9.68879,8.53027 -9.70098,-8.49809 z m 19.38335,-0.056 9.71541,8.48398 -9.68381,8.55407 -9.71292,-8.47732 z m 29.12482,8.36258 9.74539,8.43941 -9.68635,8.573 -9.74073,-8.43325 z m -116.38042,0.0595 9.68228,8.56785 -9.73316,8.44125 -9.6863,-8.56168 z m 9.72407,-8.47295 9.679,8.5745 -9.72079,8.4663 -9.68228,-8.56785 z m 29.07193,8.63144 9.69191,8.52008 -9.70614,8.4802 -9.69303,-8.51389 z m -9.68383,-8.55 9.68383,8.55 -9.70726,8.48639 -9.68567,-8.54333 z m 19.38083,0.0356 9.69151,8.52675 -9.6966,8.50771 -9.69191,-8.52008 z"
         inkscape:connector-curvature="0" />
    </g>
    <path
       style="fill:#000000;fill-opacity:1;stroke:none;stroke-width:0.0464022;stroke-linecap:round;stroke-linejoin:round;stroke-miterlimit:4;stroke-dasharray:0.0928044, 0.0464022, 0.0232011, 0.0464022;stroke-dashoffset:0;stroke-opacity:1"
       d="m 59.753651,129.73491 c -0.132728,-0.004 -0.240565,0.003 -0.393775,0.0253 -0.245646,0.0351 -0.487257,0.10303 -0.595312,0.16743 -0.01757,0.0105 -0.07433,0.0609 -0.126091,0.11215 l -0.09405,0.093 -0.05271,0.003 c -0.081,0.004 -0.175953,-0.015 -0.313676,-0.0625 -0.1356,-0.0468 -0.221647,-0.0873 -0.37362,-0.1757 -0.05567,-0.0324 -0.102153,-0.0578 -0.103353,-0.0568 -0.0012,0.001 0.04144,0.0514 0.09457,0.11162 0.05314,0.0601 0.09663,0.11169 0.09663,0.11369 0,0.002 -0.03359,0.0117 -0.07441,0.0207 -0.07749,0.017 -0.238778,0.0668 -0.233578,0.0718 0.0016,0.002 0.03429,-0.001 0.07235,-0.006 0.248038,-0.0322 0.4243,-0.0279 0.595312,0.0145 0.05571,0.0139 0.249482,0.0741 0.255282,0.0801 0.0022,0.002 0.01232,0.0453 0.02222,0.0956 0.0206,0.10509 0.03027,0.13534 0.06356,0.20154 0.0501,0.0996 0.124013,0.19627 0.237194,0.30903 0.168612,0.16798 0.39433,0.32484 0.643372,0.447 0.154579,0.0758 0.25225,0.10284 0.371554,0.10232 0.0917,-5.3e-4 0.144126,-0.009 0.272853,-0.0465 0.108699,-0.0314 0.170548,-0.0426 0.261999,-0.0475 0.27777,0.0115 0.4764,0.10574 0.675928,0.22737 0.651354,0.46058 1.024546,1.02354 1.480529,1.68827 0.829733,1.20959 0.965435,1.67778 0.829405,2.30684 -0.134054,0.60219 -0.603895,1.26535 -1.287259,1.57768 -3.425409,1.56562 -9.238865,0.73842 -5.982753,-4.29607 -1.400507,0.85358 -2.162068,2.79351 -1.205955,4.36583 1.455354,1.97784 4.642995,1.81863 6.820456,1.02853 1.191572,-0.43237 1.974146,-1.05775 2.252139,-1.61573 0.704052,-1.70701 0.05643,-2.82378 -0.695331,-3.83475 -0.616294,-0.79751 -1.561988,-1.76413 -1.904793,-1.94459 -0.16323,-0.07 -0.273082,-0.16615 -0.350883,-0.21755 -0.08575,-0.0566 -0.186163,-0.15965 -0.283704,-0.29094 -0.102976,-0.13861 -0.157599,-0.20575 -0.217041,-0.26665 -0.199496,-0.20456 -0.419719,-0.29279 -0.757058,-0.30179 z"
       id="path84290"
       inkscape:connector-curvature="0"
       sodipodi:nodetypes="ccccccccccscccccccccccccsccccscccccccc" />
  </g>
</svg>
