<?xml version="1.0" encoding="UTF-8" standalone="no"?>
<!-- Created with Inkscape (http://www.inkscape.org/) -->

<svg
   width="9.7830601mm"
   height="13.049502mm"
   viewBox="0 0 9.7830598 13.049502"
   version="1.1"
   id="svg12882"
   sodipodi:docname="MOCpy-dark-icon.svg"
   inkscape:version="1.2.2 (b0a8486541, 2022-12-01)"
   xmlns:inkscape="http://www.inkscape.org/namespaces/inkscape"
   xmlns:sodipodi="http://sodipodi.sourceforge.net/DTD/sodipodi-0.dtd"
   xmlns="http://www.w3.org/2000/svg"
   xmlns:svg="http://www.w3.org/2000/svg">
  <sodipodi:namedview
     id="namedview31"
     pagecolor="#ffffff"
     bordercolor="#000000"
     borderopacity="0.25"
     inkscape:showpageshadow="2"
     inkscape:pageopacity="0.0"
     inkscape:pagecheckerboard="0"
     inkscape:deskcolor="#d1d1d1"
     inkscape:document-units="mm"
     showgrid="false"
     inkscape:zoom="20.822793"
     inkscape:cx="15.87203"
     inkscape:cy="24.636465"
     inkscape:window-width="2560"
     inkscape:window-height="1367"
     inkscape:window-x="2560"
     inkscape:window-y="0"
     inkscape:window-maximized="1"
     inkscape:current-layer="svg12882" />
  <defs
     id="defs12879">
    <clipPath
       id="p6faa9b3562"
       style="stroke-linecap:butt;stroke-linejoin:round">
      <path
         id="path120132"
         d="m 90,640.8 h 558 v 0 -554.4 0 H 90 v 0 554.4"
         style="stroke-linecap:butt;stroke-linejoin:round" />
    </clipPath>
    <clipPath
       clipPathUnits="userSpaceOnUse"
       id="clipPath93428"
       style="stroke-linecap:butt;stroke-linejoin:round">
      <path
         style="fill:none;stroke:#000000;stroke-width:11.0931px;stroke-linecap:butt;stroke-linejoin:miter;stroke-opacity:1"
         d="m 360.7526,385.65248 c -133.40519,-2.81453 -120.1962,26.2135 -120.4967,127.86674 l 23.44043,129.56206 315.25735,-1.84336 -7.02749,-481.35932 -83.20938,58.49875 c 2.22163,153.9549 5.44098,170.08965 -127.96421,167.27623 z"
         id="path93430" />
    </clipPath>
    <clipPath
       id="clipPath13015"
       style="stroke-linecap:butt;stroke-linejoin:round">
      <path
         id="path13013"
         d="m 90,640.8 h 558 v 0 -554.4 0 H 90 v 0 554.4"
         style="stroke-linecap:butt;stroke-linejoin:round" />
    </clipPath>
    <clipPath
       id="p6faa9b3562-3"
       style="stroke-linecap:butt;stroke-linejoin:round">
      <path
         id="path120132-6"
         d="m 90,640.8 h 558 v 0 -554.4 0 H 90 v 0 554.4"
         style="stroke-linecap:butt;stroke-linejoin:round" />
    </clipPath>
    <clipPath
       id="p6faa9b3562-7"
       style="stroke-linecap:butt;stroke-linejoin:round">
      <path
         id="path120132-5"
         d="m 90,640.8 h 558 v 0 -554.4 0 H 90 v 0 554.4"
         style="stroke-linecap:butt;stroke-linejoin:round" />
    </clipPath>
    <clipPath
       id="p6faa9b3562-35"
       style="stroke-linecap:butt;stroke-linejoin:round">
      <path
         id="path120132-62"
         d="m 90,640.8 h 558 v 0 -554.4 0 H 90 v 0 554.4"
         style="stroke-linecap:butt;stroke-linejoin:round" />
    </clipPath>
    <clipPath
       id="p6faa9b3562-9"
       style="stroke-linecap:butt;stroke-linejoin:round">
      <path
         id="path120132-1"
         d="m 90,640.8 h 558 v 0 -554.4 0 H 90 v 0 554.4"
         style="stroke-linecap:butt;stroke-linejoin:round" />
    </clipPath>
    <clipPath
       id="p6faa9b3562-2"
       style="stroke-linecap:butt;stroke-linejoin:round">
      <path
         id="path120132-7"
         d="m 90,640.8 h 558 v 0 -554.4 0 H 90 v 0 554.4"
         style="stroke-linecap:butt;stroke-linejoin:round" />
    </clipPath>
    <clipPath
       clipPathUnits="userSpaceOnUse"
       id="clipPath93428-0"
       style="stroke-linecap:butt;stroke-linejoin:round">
      <path
         style="fill:none;stroke:#000000;stroke-width:11.0931px;stroke-linecap:butt;stroke-linejoin:miter;stroke-opacity:1"
         d="m 360.7526,385.65248 c -133.40519,-2.81453 -120.1962,26.2135 -120.4967,127.86674 l 23.44043,129.56206 315.25735,-1.84336 -7.02749,-481.35932 -83.20938,58.49875 c 2.22163,153.9549 5.44098,170.08965 -127.96421,167.27623 z"
         id="path93430-9" />
    </clipPath>
    <clipPath
       id="clipPath14365"
       style="stroke-linecap:butt;stroke-linejoin:round">
      <path
         id="path14363"
         d="m 90,640.8 h 558 v 0 -554.4 0 H 90 v 0 554.4"
         style="stroke-linecap:butt;stroke-linejoin:round" />
    </clipPath>
  </defs>
  <g
     transform="matrix(0.02714213,0,0,0.02728708,-5.151817,-3.35074)"
     style="fill:#3571a3;fill-opacity:1;stroke:#eaeaea;stroke-width:3.67451;stroke-linecap:butt;stroke-linejoin:round;stroke-miterlimit:4;stroke-dasharray:none;stroke-opacity:1"
     id="g1823">
    <path
       d="m 333.92652,369.94526 78.4498,66.43449 -78.70442,66.58973 -78.61726,-66.73213 z m 78.13128,-66.68153 78.65812,66.32713 -78.3396,66.78889 -78.4498,-66.43449 z m -77.87502,-67.19778 77.87502,67.19778 -78.13128,66.68153 -78.04078,-67.10545 z m 38.91039,233.58195 39.44249,33.32158 -39.42652,33.44329 -39.43724,-33.44329 z m 39.28315,-33.26815 39.49491,33.22358 -39.33557,33.36615 -39.44249,-33.32158 z m 39.19219,-33.31798 39.59451,33.14883 -39.29179,33.39273 -39.49491,-33.22358 z m 39.14741,-33.47091 39.74152,33.09698 -39.29442,33.52276 -39.59451,-33.14883 z m -235.24638,0.0533 39.13734,33.44427 -39.55224,33.14896 -39.27371,-33.49595 z m 39.40823,-33.11589 39.04875,33.41703 -39.31964,33.14313 -39.13734,-33.44427 z m -38.99203,-33.68842 38.99203,33.68842 -39.40823,33.11589 -39.12769,-33.69199 z m 234.38166,-0.0797 39.59654,33.10305 -39.14802,33.72765 -39.45029,-33.10683 z m -39.30642,-33.24256 39.30642,33.24256 -39.00177,33.72387 -39.20783,-33.2203 z m -39.06406,-33.48686 39.06406,33.48686 -38.90318,33.74613 -39.01243,-33.43766 z m -38.86773,-33.83737 38.86773,33.83737 -38.85155,33.79533 -38.86259,-33.76012 z m -39.35729,300.77611 19.70294,16.70437 -19.76697,16.74677 -19.71346,-16.73782 z m -19.67759,-16.68287 19.67759,16.68287 -19.77749,16.71332 -19.69401,-16.71332 z m -19.65816,-16.67436 19.65816,16.67436 -19.79391,16.68287 -19.68051,-16.70186 z m -19.64461,-16.67878 19.64461,16.67878 -19.81626,16.65537 -19.67288,-16.70338 z m -19.6369,-16.69612 19.6369,16.69612 -19.84453,16.63077 -19.67111,-16.71783 z m -19.63495,-16.72637 19.63495,16.72637 -19.87874,16.60906 -19.67514,-16.74525 z m 196.79215,66.77228 19.81119,16.68622 -19.69526,16.71668 -19.79211,-16.71668 z m 19.65939,-16.67993 19.83617,16.65869 -19.68437,16.70746 -19.81119,-16.68622 z m 19.64845,-16.68658 19.8671,16.63407 -19.67938,16.7112 -19.83617,-16.65869 z m 19.64334,-16.70615 19.90398,16.61232 -19.68022,16.7279 -19.8671,-16.63407 z m 19.64401,-16.73865 19.94685,16.59341 -19.68688,16.75756 -19.90398,-16.61232 z m -294.74586,-50.09893 19.60221,16.81559 -19.88245,16.55279 -19.64828,-16.82578 z m 19.84613,-16.5374 19.56224,16.8085 -19.80616,16.54449 -19.60221,-16.81559 z m -19.56545,-16.88349 19.56545,16.88349 -19.84613,16.5374 -19.6114,-16.88771 z m 0.28149,-33.51777 19.52842,16.97361 -19.80991,16.54416 -19.57425,-16.97168 z m 19.77376,-16.57341 19.48864,16.97886 -19.73398,16.56816 -19.52842,-16.97361 z m 19.69793,-16.61381 19.45487,16.98748 -19.66416,16.60519 -19.48864,-16.97886 z m 19.62817,-16.66735 19.42703,16.99956 -19.60033,16.65527 -19.45487,-16.98748 z m -19.4177,-17.11359 19.4177,17.11359 -19.62817,16.66735 -19.45139,-17.09824 z m 38.98202,0.37952 19.40508,17.01514 -19.54237,16.71849 -19.42703,-16.99956 z m -19.38993,-17.1326 19.38993,17.1326 -19.56432,16.73407 -19.4177,-17.11359 z m 38.89621,0.31849 19.38898,17.03434 -19.49018,16.79491 -19.40508,-17.01514 z m 195.49324,133.73406 19.87388,16.53609 -19.61377,16.83234 -19.83123,-16.54324 z m -0.52232,-67.00551 19.80138,16.56763 -19.53976,16.99481 -19.75894,-16.56244 z m -19.72286,-16.60587 19.72286,16.60587 -19.49732,17 -19.68645,-16.59732 z m -19.65043,-16.65727 19.65043,16.65727 -19.46091,17.00855 -19.61997,-16.64524 z m -19.58396,-16.72184 19.58396,16.72184 -19.43045,17.02058 -19.55941,-16.7063 z m -19.52333,-16.79973 19.52333,16.79973 -19.4059,17.03612 -19.50465,-16.78056 z m -19.46845,-16.89101 19.46845,16.89101 -19.38722,17.05529 -19.45559,-16.86816 z m -77.56794,0.0396 19.3787,17.05722 -19.44367,16.88467 -19.38898,-17.03434 z m 19.12709,317.54979 9.86285,8.36432 -9.87687,8.376 -9.864,-8.37306 z m -59.17444,-16.70437 9.84495,8.35441 -9.91301,8.36718 -9.85054,-8.36242 z m -9.84157,-8.35155 9.84157,8.35155 -9.9186,8.35917 -9.84791,-8.35917 z m -9.83894,-8.35031 9.83894,8.35031 -9.92494,8.35155 -9.84601,-8.35757 z m -9.83703,-8.35069 9.83703,8.35069 -9.93201,8.34429 -9.84486,-8.35758 z m -9.83585,-8.35269 9.83585,8.35269 -9.93984,8.3374 -9.84442,-8.35922 z m -9.83542,-8.3563 9.83542,8.3563 -9.94841,8.33087 -9.84473,-8.36247 z m -9.83569,-8.36153 9.83569,8.36153 -9.95772,8.3247 -9.84576,-8.36735 z m -9.8367,-8.36839 9.8367,8.36839 -9.96779,8.31888 -9.84752,-8.37385 z m -9.69834,-25.05839 9.82933,8.38258 -9.96943,8.29895 -9.84089,-8.38696 z m 9.96028,-8.28723 9.81855,8.37858 -9.9495,8.29123 -9.82933,-8.38258 z m -9.82021,-8.391 9.82021,8.391 -9.96028,8.28723 -9.83175,-8.39465 z m -9.8226,-8.40505 9.8226,8.40505 -9.97182,8.28358 -9.83489,-8.40835 z m 186.87842,125.33862 9.88368,8.36866 -9.86165,8.37279 -9.88187,-8.37741 z m 9.85267,-8.35597 9.88622,8.3603 -9.85521,8.36433 -9.88368,-8.36866 z m 19.73575,0.003 9.9026,8.36436 -9.85355,8.36588 -9.89858,-8.37274 z m -9.88951,-8.35232 9.88951,8.35232 -9.84953,8.3575 -9.88622,-8.3603 z m 59.17174,-16.70746 9.943,8.34681 -9.84895,8.36065 -9.93525,-8.35407 z m 9.83995,-8.35432 9.95149,8.33991 -9.84844,8.36122 -9.943,-8.34681 z m 9.83943,-8.35688 9.96073,8.33337 -9.84867,8.36342 -9.95149,-8.33991 z m 29.24429,-58.46443 9.97458,8.28855 -9.83551,8.38957 -9.96311,-8.29256 z m 9.82637,-8.39855 9.98679,8.28489 -9.83858,8.40221 -9.97458,-8.28855 z M 206.25697,360.939 l 9.8042,8.43402 -9.95357,8.26983 -9.81645,-8.43584 z m 0.2992,-33.46086 9.78568,8.47399 -9.93538,8.26715 -9.7979,-8.4743 z m 10.20834,-41.85308 9.75557,8.52683 -9.89674,8.28247 -9.767,-8.52515 z m 9.8877,-8.29304 9.74489,8.52893 -9.87702,8.29094 -9.75557,-8.52683 z m 9.86799,-8.30356 9.73496,8.53145 -9.85806,8.30104 -9.74489,-8.52893 z m 9.84904,-8.31575 9.72579,8.53443 -9.83987,8.31277 -9.73496,-8.53145 z m -9.7256,-8.56381 9.7256,8.56381 -9.84904,8.31575 -9.73552,-8.56044 z m 58.71287,-33.25538 9.69104,8.55598 -9.76003,8.39622 -9.69652,-8.55076 z m -9.68721,-8.58751 9.68721,8.58751 -9.76551,8.40144 -9.69341,-8.58184 z m 19.4382,0.16392 9.6863,8.56168 -9.74625,8.41789 -9.69104,-8.55598 z m 225.20172,175.52867 9.97762,8.27607 -9.8294,8.41317 -9.96542,-8.279 z m -9.9563,-8.27219 9.9563,8.27219 -9.8172,8.41024 -9.94487,-8.27474 z m 9.808,-8.42465 9.96849,8.27 -9.82019,8.42684 -9.9563,-8.27219 z m -0.1484,-16.70996 9.95935,8.26671 -9.81095,8.44325 -9.94718,-8.26816 z m -9.9381,-8.26688 9.9381,8.26688 -9.79878,8.4418 -9.9267,-8.26793 z m 9.78952,-8.46171 9.95025,8.26618 -9.80167,8.46241 -9.9381,-8.26688 z m -0.14879,-16.7528 9.94116,8.26846 -9.79237,8.48434 -9.92902,-8.26839 z m -9.91995,-8.2727 9.91995,8.2727 -9.78023,8.48441 -9.90858,-8.27222 z m -0.2803,-33.6179 9.90183,8.28985 -9.76152,8.53828 -9.89049,-8.28778 z m -9.88145,-8.29985 9.88145,8.29985 -9.75018,8.54035 -9.87086,-8.29733 z m -9.86184,-8.31149 9.86184,8.31149 -9.73959,8.54287 -9.852,-8.30854 z m -9.84298,-8.32478 9.84298,8.32478 -9.72975,8.54582 -9.8339,-8.32139 z m -9.82487,-8.33972 9.82487,8.33972 -9.72067,8.54921 -9.81653,-8.33588 z m -9.80752,-8.35632 9.80752,8.35632 -9.71233,8.55305 -9.79992,-8.35202 z m -9.7909,-8.37457 9.7909,8.37457 -9.70473,8.55735 -9.78404,-8.36982 z m -9.77501,-8.39451 9.77501,8.39451 -9.69787,8.5621 -9.76888,-8.3893 z m -9.75984,-8.41612 9.75984,8.41612 -9.69174,8.56731 -9.75445,-8.41043 z m -48.55153,-8.24126 9.71292,8.47732 -9.69055,8.52407 -9.71116,-8.47112 z m -9.70203,-8.50475 9.70203,8.50475 -9.68879,8.53027 -9.70098,-8.49809 z m 19.38335,-0.056 9.71541,8.48398 -9.68381,8.55407 -9.71292,-8.47732 z m 29.12482,8.36258 9.74539,8.43941 -9.68635,8.573 -9.74073,-8.43325 z m -116.38042,0.0595 9.68228,8.56785 -9.73316,8.44125 -9.6863,-8.56168 z m 9.72407,-8.47295 9.679,8.5745 -9.72079,8.4663 -9.68228,-8.56785 z m 29.07193,8.63144 9.69191,8.52008 -9.70614,8.4802 -9.69303,-8.51389 z m -9.68383,-8.55 9.68383,8.55 -9.70726,8.48639 -9.68567,-8.54333 z m 19.38083,0.0356 9.69151,8.52675 -9.6966,8.50771 -9.69191,-8.52008 z"
       clip-path="url(#p6faa9b3562-2)"
       style="fill:#3571a3;fill-opacity:1;stroke:#eaeaea;stroke-width:3.67451;stroke-linecap:butt;stroke-linejoin:miter;stroke-miterlimit:4;stroke-dasharray:none;stroke-opacity:1"
       id="path1821" />
  </g>
  <path
     style="fill:#eaeaea;fill-opacity:1;stroke:none;stroke-width:0.0110485;stroke-linecap:round;stroke-linejoin:round;stroke-miterlimit:4;stroke-dasharray:0.0110485, 0.0110485;stroke-dashoffset:0;stroke-opacity:1"
     d="m 7.244655,13.02865 c -0.172251,0.0294 -0.269336,0.028 -0.429374,-0.006 -0.300538,-0.0642 -0.535395,-0.20918 -0.732477,-0.45213 -0.113597,-0.14003 -0.182086,-0.29199 -0.150777,-0.3346 0.02287,-0.0311 0.07071,-0.004 0.200816,0.11587 0.06655,0.0611 0.165797,0.13848 0.220572,0.17204 0.278691,0.17074 0.593118,0.1924 0.962401,0.0662 0.604338,-0.20634 0.954121,-0.6535 0.891013,-1.13867 -0.01,-0.077 -0.06318,-0.17082 -0.161471,-0.28512 -0.218098,-0.2536 -0.551659,-0.39031 -0.860804,-0.35278 -0.0802,0.01 -0.236857,0.0481 -0.583472,0.14297 -0.260606,0.0713 -0.752309,0.19808 -1.092407,0.28282 -0.742528,0.19718 -1.202367,0.23692 -1.833072,0.0769 C 3.31162,11.20403 2.976163,10.99742 2.763335,10.75428 2.608526,10.57741 2.522337,10.43244 2.446807,10.22184 2.270972,9.73155 2.374027,9.08979 2.691595,8.69752 2.85862,8.4912 3.159104,8.28495 3.432214,8.18923 c 0.07649,-0.0264 0.117995,-0.0274 2.468799,-0.0112 1.315059,0.009 2.391852,0.0194 2.392878,0.0235 0.0033,0.0133 -0.229488,0.19724 -0.362884,0.28682 C 7.712653,8.63499 7.480953,8.75604 7.211881,8.86415 7.103792,8.90775 6.995819,8.93975 6.763128,8.99768 6.301583,9.11267 6.102185,9.12939 5.452694,9.10665 4.689995,9.07995 4.4877,9.09235 4.065379,9.19205 l -0.183771,0.0438 -0.06448,0.0547 c -0.117382,0.0997 -0.209566,0.25208 -0.237214,0.39213 -0.04377,0.22171 0.063,0.44855 0.286403,0.60855 0.193444,0.13853 0.444783,0.23302 0.676611,0.25437 0.252178,0.0232 0.421152,-0.009 1.372507,-0.26026 0.99616,-0.2633 1.134897,-0.28038 1.5964,-0.19685 0.270859,0.049 0.464247,0.11937 0.668794,0.2432 0.259466,0.15709 0.455671,0.37673 0.562162,0.62933 0.04783,0.11344 0.09305,0.34282 0.09172,0.46564 -0.0052,0.49587 -0.258581,0.94529 -0.719236,1.27582 -0.185511,0.13307 -0.56279,0.27519 -0.870271,0.32759 z"
     id="path2410" />
  <g
     id="g1831"
     style="fill:#fed142;fill-opacity:1;stroke:#eaeaea;stroke-width:3.67451;stroke-linecap:butt;stroke-linejoin:round;stroke-miterlimit:4;stroke-dasharray:none;stroke-opacity:1"
     transform="matrix(0.02714213,0,0,0.02728708,-5.151817,-3.35074)"
     clip-path="url(#clipPath93428-0)">
    <path
       id="path1829"
       style="fill:#fed142;fill-opacity:1;stroke:#eaeaea;stroke-width:3.67451;stroke-linecap:butt;stroke-linejoin:miter;stroke-miterlimit:4;stroke-dasharray:none;stroke-opacity:1"
       clip-path="url(#p6faa9b3562-2)"
       d="m 333.92652,369.94526 78.4498,66.43449 -78.70442,66.58973 -78.61726,-66.73213 z m 78.13128,-66.68153 78.65812,66.32713 -78.3396,66.78889 -78.4498,-66.43449 z m -77.87502,-67.19778 77.87502,67.19778 -78.13128,66.68153 -78.04078,-67.10545 z m 38.91039,233.58195 39.44249,33.32158 -39.42652,33.44329 -39.43724,-33.44329 z m 39.28315,-33.26815 39.49491,33.22358 -39.33557,33.36615 -39.44249,-33.32158 z m 39.19219,-33.31798 39.59451,33.14883 -39.29179,33.39273 -39.49491,-33.22358 z m 39.14741,-33.47091 39.74152,33.09698 -39.29442,33.52276 -39.59451,-33.14883 z m -235.24638,0.0533 39.13734,33.44427 -39.55224,33.14896 -39.27371,-33.49595 z m 39.40823,-33.11589 39.04875,33.41703 -39.31964,33.14313 -39.13734,-33.44427 z m -38.99203,-33.68842 38.99203,33.68842 -39.40823,33.11589 -39.12769,-33.69199 z m 234.38166,-0.0797 39.59654,33.10305 -39.14802,33.72765 -39.45029,-33.10683 z m -39.30642,-33.24256 39.30642,33.24256 -39.00177,33.72387 -39.20783,-33.2203 z m -39.06406,-33.48686 39.06406,33.48686 -38.90318,33.74613 -39.01243,-33.43766 z m -38.86773,-33.83737 38.86773,33.83737 -38.85155,33.79533 -38.86259,-33.76012 z m -39.35729,300.77611 19.70294,16.70437 -19.76697,16.74677 -19.71346,-16.73782 z m -19.67759,-16.68287 19.67759,16.68287 -19.77749,16.71332 -19.69401,-16.71332 z m -19.65816,-16.67436 19.65816,16.67436 -19.79391,16.68287 -19.68051,-16.70186 z m -19.64461,-16.67878 19.64461,16.67878 -19.81626,16.65537 -19.67288,-16.70338 z m -19.6369,-16.69612 19.6369,16.69612 -19.84453,16.63077 -19.67111,-16.71783 z m -19.63495,-16.72637 19.63495,16.72637 -19.87874,16.60906 -19.67514,-16.74525 z m 196.79215,66.77228 19.81119,16.68622 -19.69526,16.71668 -19.79211,-16.71668 z m 19.65939,-16.67993 19.83617,16.65869 -19.68437,16.70746 -19.81119,-16.68622 z m 19.64845,-16.68658 19.8671,16.63407 -19.67938,16.7112 -19.83617,-16.65869 z m 19.64334,-16.70615 19.90398,16.61232 -19.68022,16.7279 -19.8671,-16.63407 z m 19.64401,-16.73865 19.94685,16.59341 -19.68688,16.75756 -19.90398,-16.61232 z m -294.74586,-50.09893 19.60221,16.81559 -19.88245,16.55279 -19.64828,-16.82578 z m 19.84613,-16.5374 19.56224,16.8085 -19.80616,16.54449 -19.60221,-16.81559 z m -19.56545,-16.88349 19.56545,16.88349 -19.84613,16.5374 -19.6114,-16.88771 z m 0.28149,-33.51777 19.52842,16.97361 -19.80991,16.54416 -19.57425,-16.97168 z m 19.77376,-16.57341 19.48864,16.97886 -19.73398,16.56816 -19.52842,-16.97361 z m 19.69793,-16.61381 19.45487,16.98748 -19.66416,16.60519 -19.48864,-16.97886 z m 19.62817,-16.66735 19.42703,16.99956 -19.60033,16.65527 -19.45487,-16.98748 z m -19.4177,-17.11359 19.4177,17.11359 -19.62817,16.66735 -19.45139,-17.09824 z m 38.98202,0.37952 19.40508,17.01514 -19.54237,16.71849 -19.42703,-16.99956 z m -19.38993,-17.1326 19.38993,17.1326 -19.56432,16.73407 -19.4177,-17.11359 z m 38.89621,0.31849 19.38898,17.03434 -19.49018,16.79491 -19.40508,-17.01514 z m 195.49324,133.73406 19.87388,16.53609 -19.61377,16.83234 -19.83123,-16.54324 z m -0.52232,-67.00551 19.80138,16.56763 -19.53976,16.99481 -19.75894,-16.56244 z m -19.72286,-16.60587 19.72286,16.60587 -19.49732,17 -19.68645,-16.59732 z m -19.65043,-16.65727 19.65043,16.65727 -19.46091,17.00855 -19.61997,-16.64524 z m -19.58396,-16.72184 19.58396,16.72184 -19.43045,17.02058 -19.55941,-16.7063 z m -19.52333,-16.79973 19.52333,16.79973 -19.4059,17.03612 -19.50465,-16.78056 z m -19.46845,-16.89101 19.46845,16.89101 -19.38722,17.05529 -19.45559,-16.86816 z m -77.56794,0.0396 19.3787,17.05722 -19.44367,16.88467 -19.38898,-17.03434 z m 19.12709,317.54979 9.86285,8.36432 -9.87687,8.376 -9.864,-8.37306 z m -59.17444,-16.70437 9.84495,8.35441 -9.91301,8.36718 -9.85054,-8.36242 z m -9.84157,-8.35155 9.84157,8.35155 -9.9186,8.35917 -9.84791,-8.35917 z m -9.83894,-8.35031 9.83894,8.35031 -9.92494,8.35155 -9.84601,-8.35757 z m -9.83703,-8.35069 9.83703,8.35069 -9.93201,8.34429 -9.84486,-8.35758 z m -9.83585,-8.35269 9.83585,8.35269 -9.93984,8.3374 -9.84442,-8.35922 z m -9.83542,-8.3563 9.83542,8.3563 -9.94841,8.33087 -9.84473,-8.36247 z m -9.83569,-8.36153 9.83569,8.36153 -9.95772,8.3247 -9.84576,-8.36735 z m -9.8367,-8.36839 9.8367,8.36839 -9.96779,8.31888 -9.84752,-8.37385 z m -9.69834,-25.05839 9.82933,8.38258 -9.96943,8.29895 -9.84089,-8.38696 z m 9.96028,-8.28723 9.81855,8.37858 -9.9495,8.29123 -9.82933,-8.38258 z m -9.82021,-8.391 9.82021,8.391 -9.96028,8.28723 -9.83175,-8.39465 z m -9.8226,-8.40505 9.8226,8.40505 -9.97182,8.28358 -9.83489,-8.40835 z m 186.87842,125.33862 9.88368,8.36866 -9.86165,8.37279 -9.88187,-8.37741 z m 9.85267,-8.35597 9.88622,8.3603 -9.85521,8.36433 -9.88368,-8.36866 z m 19.73575,0.003 9.9026,8.36436 -9.85355,8.36588 -9.89858,-8.37274 z m -9.88951,-8.35232 9.88951,8.35232 -9.84953,8.3575 -9.88622,-8.3603 z m 59.17174,-16.70746 9.943,8.34681 -9.84895,8.36065 -9.93525,-8.35407 z m 9.83995,-8.35432 9.95149,8.33991 -9.84844,8.36122 -9.943,-8.34681 z m 9.83943,-8.35688 9.96073,8.33337 -9.84867,8.36342 -9.95149,-8.33991 z m 29.24429,-58.46443 9.97458,8.28855 -9.83551,8.38957 -9.96311,-8.29256 z m 9.82637,-8.39855 9.98679,8.28489 -9.83858,8.40221 -9.97458,-8.28855 z M 206.25697,360.939 l 9.8042,8.43402 -9.95357,8.26983 -9.81645,-8.43584 z m 0.2992,-33.46086 9.78568,8.47399 -9.93538,8.26715 -9.7979,-8.4743 z m 10.20834,-41.85308 9.75557,8.52683 -9.89674,8.28247 -9.767,-8.52515 z m 9.8877,-8.29304 9.74489,8.52893 -9.87702,8.29094 -9.75557,-8.52683 z m 9.86799,-8.30356 9.73496,8.53145 -9.85806,8.30104 -9.74489,-8.52893 z m 9.84904,-8.31575 9.72579,8.53443 -9.83987,8.31277 -9.73496,-8.53145 z m -9.7256,-8.56381 9.7256,8.56381 -9.84904,8.31575 -9.73552,-8.56044 z m 58.71287,-33.25538 9.69104,8.55598 -9.76003,8.39622 -9.69652,-8.55076 z m -9.68721,-8.58751 9.68721,8.58751 -9.76551,8.40144 -9.69341,-8.58184 z m 19.4382,0.16392 9.6863,8.56168 -9.74625,8.41789 -9.69104,-8.55598 z m 225.20172,175.52867 9.97762,8.27607 -9.8294,8.41317 -9.96542,-8.279 z m -9.9563,-8.27219 9.9563,8.27219 -9.8172,8.41024 -9.94487,-8.27474 z m 9.808,-8.42465 9.96849,8.27 -9.82019,8.42684 -9.9563,-8.27219 z m -0.1484,-16.70996 9.95935,8.26671 -9.81095,8.44325 -9.94718,-8.26816 z m -9.9381,-8.26688 9.9381,8.26688 -9.79878,8.4418 -9.9267,-8.26793 z m 9.78952,-8.46171 9.95025,8.26618 -9.80167,8.46241 -9.9381,-8.26688 z m -0.14879,-16.7528 9.94116,8.26846 -9.79237,8.48434 -9.92902,-8.26839 z m -9.91995,-8.2727 9.91995,8.2727 -9.78023,8.48441 -9.90858,-8.27222 z m -0.2803,-33.6179 9.90183,8.28985 -9.76152,8.53828 -9.89049,-8.28778 z m -9.88145,-8.29985 9.88145,8.29985 -9.75018,8.54035 -9.87086,-8.29733 z m -9.86184,-8.31149 9.86184,8.31149 -9.73959,8.54287 -9.852,-8.30854 z m -9.84298,-8.32478 9.84298,8.32478 -9.72975,8.54582 -9.8339,-8.32139 z m -9.82487,-8.33972 9.82487,8.33972 -9.72067,8.54921 -9.81653,-8.33588 z m -9.80752,-8.35632 9.80752,8.35632 -9.71233,8.55305 -9.79992,-8.35202 z m -9.7909,-8.37457 9.7909,8.37457 -9.70473,8.55735 -9.78404,-8.36982 z m -9.77501,-8.39451 9.77501,8.39451 -9.69787,8.5621 -9.76888,-8.3893 z m -9.75984,-8.41612 9.75984,8.41612 -9.69174,8.56731 -9.75445,-8.41043 z m -48.55153,-8.24126 9.71292,8.47732 -9.69055,8.52407 -9.71116,-8.47112 z m -9.70203,-8.50475 9.70203,8.50475 -9.68879,8.53027 -9.70098,-8.49809 z m 19.38335,-0.056 9.71541,8.48398 -9.68381,8.55407 -9.71292,-8.47732 z m 29.12482,8.36258 9.74539,8.43941 -9.68635,8.573 -9.74073,-8.43325 z m -116.38042,0.0595 9.68228,8.56785 -9.73316,8.44125 -9.6863,-8.56168 z m 9.72407,-8.47295 9.679,8.5745 -9.72079,8.4663 -9.68228,-8.56785 z m 29.07193,8.63144 9.69191,8.52008 -9.70614,8.4802 -9.69303,-8.51389 z m -9.68383,-8.55 9.68383,8.55 -9.70726,8.48639 -9.68567,-8.54333 z m 19.38083,0.0356 9.69151,8.52675 -9.6966,8.50771 -9.69191,-8.52008 z" />
  </g>
  <path
     style="fill:#eaeaea;fill-opacity:1;stroke:none;stroke-width:0.0464022;stroke-linecap:round;stroke-linejoin:round;stroke-miterlimit:4;stroke-dasharray:0.0928044, 0.0464022, 0.0232011, 0.0464022;stroke-dashoffset:0;stroke-opacity:1"
     d="M 5.271849,0.00107 C 5.139121,-0.00293 5.031284,0.00407 4.878074,0.02637 4.632428,0.06147 4.390817,0.1294 4.282762,0.1938 4.265192,0.2043 4.208432,0.2547 4.156671,0.30594 l -0.09405,0.093 -0.05271,0.003 c -0.081,0.004 -0.175953,-0.015 -0.313676,-0.0625 -0.1356,-0.0468 -0.221647,-0.0873 -0.37362,-0.1757 -0.05567,-0.0324 -0.102153,-0.0578 -0.103353,-0.0568 -0.0012,0.001 0.04144,0.0514 0.09457,0.11162 0.05314,0.0601 0.09663,0.11169 0.09663,0.11369 0,0.002 -0.03359,0.0117 -0.07441,0.0207 -0.07749,0.017 -0.238778,0.0668 -0.233578,0.0718 0.0016,0.002 0.03429,-0.001 0.07235,-0.006 0.248038,-0.0322 0.4243,-0.0279 0.595312,0.0145 0.05571,0.0139 0.249482,0.0741 0.255282,0.0801 0.0022,0.002 0.01232,0.0453 0.02222,0.0956 0.0206,0.10509 0.03027,0.13534 0.06356,0.20154 0.0501,0.0996 0.124013,0.19627 0.237194,0.30903 0.168612,0.16798 0.39433,0.32484 0.643372,0.447 0.154579,0.0758 0.25225,0.10284 0.371554,0.10232 0.0917,-5.3e-4 0.144126,-0.009 0.272853,-0.0465 C 5.74487,1.59094 5.806719,1.57974 5.89817,1.57484 6.17594,1.58634 6.37457,1.68058 6.574098,1.80221 7.225452,2.26279 7.598644,2.82575 8.054627,3.49048 8.88436,4.70007 9.020062,5.16826 8.884032,5.79732 8.749978,6.39951 8.280137,7.06267 7.596773,7.375 4.171364,8.94062 -1.55937,8.15122 1.696742,3.11673 0.296235,3.97031 -0.548048,5.87244 0.408065,7.44476 1.863419,9.4226 5.05106,9.26339 7.228521,8.47329 8.420093,8.04092 9.202667,7.41554 9.48066,6.85756 10.184712,5.15055 9.53709,4.03378 8.785329,3.02281 8.169035,2.2253 7.223341,1.25868 6.880536,1.07822 6.717306,1.00822 6.607454,0.91207 6.529653,0.86067 6.443903,0.80407 6.34349,0.70102 6.245949,0.56973 6.142973,0.43112 6.08835,0.36398 6.028908,0.30308 5.829412,0.09852 5.609189,0.01029 5.27185,0.00129 Z"
     id="path1197" />
</svg>
